<?xml version="1.0" standalone="no"?><!-- Generator: Gravit.io --><svg xmlns="http://www.w3.org/2000/svg" xmlns:xlink="http://www.w3.org/1999/xlink" style="isolation:isolate" viewBox="0 0 199.521 199.521" width="199.521" height="199.521"><defs><clipPath id="_clipPath_IUpgNt5W76jm0B3z2204PtQo5n8w2e8B"><rect x="0" y="0" width="199.521" height="199.521"/></clipPath></defs><g clip-path="url(#_clipPath_IUpgNt5W76jm0B3z2204PtQo5n8w2e8B)"><path d=" M 99.761 0 C 44.666 0 0 44.666 0 99.761 C 0 154.856 44.666 199.521 99.761 199.521 C 154.856 199.521 199.521 154.856 199.521 99.761 C 199.521 44.666 154.856 0 99.761 0 Z  M 99.761 183.317 C 53.682 183.317 16.204 145.839 16.204 99.761 L 23.683 99.761 C 23.683 141.684 57.796 175.838 99.761 175.838 L 99.761 183.317 L 99.761 183.317 Z  M 99.761 163.373 C 64.693 163.373 36.148 134.829 36.148 99.761 L 43.627 99.761 C 43.627 130.715 68.806 155.894 99.761 155.894 L 99.761 163.373 L 99.761 163.373 Z  M 99.761 143.429 C 75.703 143.429 56.134 123.859 56.134 99.802 L 63.613 99.802 C 63.613 119.746 79.817 135.95 99.761 135.95 L 99.761 143.429 Z  M 99.761 119.746 C 88.905 119.524 80.22 110.661 80.22 99.802 C 80.22 88.944 88.905 80.08 99.761 79.858 C 110.771 79.858 119.705 88.792 119.705 99.802 C 119.746 110.813 110.813 119.746 99.761 119.746 Z  M 135.95 99.761 C 135.95 79.817 119.746 63.613 99.802 63.613 L 99.802 56.134 C 123.859 56.134 143.429 75.703 143.429 99.761 L 135.95 99.761 Z  M 155.894 99.761 C 155.894 68.806 130.715 43.627 99.761 43.627 L 99.761 36.148 C 134.829 36.148 163.373 64.693 163.373 99.761 L 155.894 99.761 Z  M 175.838 99.761 C 175.838 57.837 141.726 23.683 99.761 23.683 L 99.761 16.204 C 145.839 16.204 183.317 53.682 183.317 99.761 L 175.838 99.761 Z " fill="rgb(255,255,255)"/></g></svg>